# xmcd
#
# Track frame offsets: 
#        150
#        21223
#        33402
#        52382
#        70006
#        82473
#        105521
#        119064
#        136509
#        159386
#        173328
#        194514
#        205536
#        225567
#        240524
#        256076
#        270878
#        301869
#
# Disc length: 4247 seconds
#
# Revision: 2
# Processed by: cddbd v1.5.2PL0 Copyright (c) Steve Scherf et al.
# Submitted via: ExactAudioCopy v1.3
#
DISCID=e6109512
DTITLE=Sandy Denny - Sandy (Disc.2)
DYEAR=1972
DGENRE=Folk
TTITLE0=It'll Take A Long Time (demo)
TTITLE1=Sweet Rosemary (demo)
TTITLE2=For Nobody To Hear (demo)
TTITLE3=Tomorrow Is A Long Time (demo)
TTITLE4=Quiet Joys Of Brotherhood (demo)
TTITLE5=Listen, Listen (demo)
TTITLE6=The Lady (demo)
TTITLE7=Bushes And Briars (demo)
TTITLE8=It Suits Me Well (demo)
TTITLE9=The Music Weaver (demo)
TTITLE10=Late November (live at Ebbets Field)
TTITLE11=The Music Weaver (live at Ebbets Field)
TTITLE12=It Suits Me Well (live at Ebbets Field)
TTITLE13=Bushes And Briars (live at Ebbets Field)
TTITLE14=Quiet Joys Of Brotherhood (live at Ebbets Field)
TTITLE15=The Sea Captain (live at Ebbets Field)
TTITLE16=At The End Of The Day (live at Ebbets Field)
TTITLE17=John The Gun (live at Ebbets Field)
EXTD=
EXTT0=
EXTT1=
EXTT2=
EXTT3=
EXTT4=
EXTT5=
EXTT6=
EXTT7=
EXTT8=
EXTT9=
EXTT10=
EXTT11=
EXTT12=
EXTT13=
EXTT14=
EXTT15=
EXTT16=
EXTT17=
PLAYORDER=
